<svg xmlns="http://www.w3.org/2000/svg" width="100" height="100">
    <path
        d="M 63.645 4.808 C 64.398 5.745 64.782 7.006 65.551 9.53 L 82.335 64.66 C 76.031 61.388 69.264 59.097 62.269 57.866 L 51.345 20.946 C 50.941 19.586 49.013 19.592 48.617 20.954 L 37.819 57.854 C 30.793 59.08 23.996 61.376 17.665 64.66 L 34.53 9.523 C 35.298 7.002 35.683 5.742 36.44 4.808 C 37.105 3.983 37.97 3.343 38.953 2.948 C 40.067 2.502 41.381 2.502 44.017 2.502 L 56.064 2.502 C 58.7 2.502 60.021 2.502 61.136 2.952 C 62.115 3.347 62.978 3.986 63.641 4.808 Z"
        fill="transparent" stroke-width="5" stroke="white" stroke-linecap="round" stroke-linejoin="round"
        stroke-dasharray=""></path>
    <path
        d="M 65.471 70.063 C 62.705 72.43 57.183 74.04 50.823 74.04 C 43.014 74.04 36.47 71.612 34.733 68.342 C 34.115 70.217 33.973 72.361 33.973 73.729 C 33.973 73.729 33.565 80.454 38.242 85.134 C 38.242 82.706 40.213 80.734 42.642 80.734 C 46.803 80.734 46.799 84.366 46.796 87.314 L 46.796 87.578 C 46.796 92.051 49.528 95.882 53.416 97.5 C 52.818 96.268 52.508 94.916 52.51 93.546 C 52.51 89.281 55.015 87.694 57.928 85.849 C 60.241 84.377 62.816 82.748 64.588 79.47 C 65.543 77.708 66.042 75.734 66.04 73.73 C 66.04 72.485 65.849 71.248 65.471 70.063 Z"
        fill="transparent" stroke-width="5" stroke="white" stroke-linecap="round" stroke-linejoin="round"
        stroke-dasharray=""></path>
</svg>