<svg xmlns="http://www.w3.org/2000/svg" width="100" height="100">
    <path
        d="M 50 19.646 C 37.407 19.646 29.542 26.392 26.392 39.882 C 31.113 33.137 36.624 30.607 42.917 32.294 C 46.513 33.258 49.076 36.051 51.916 39.14 C 56.55 44.172 61.906 50 73.608 50 C 86.202 50 94.067 43.255 97.217 29.764 C 92.495 36.509 86.984 39.039 80.691 37.353 C 77.096 36.388 74.533 33.596 71.693 30.506 C 67.059 25.474 61.703 19.646 50 19.646 Z M 26.392 50 C 13.798 50 5.933 56.745 2.783 70.236 C 7.505 63.491 13.016 60.961 19.309 62.647 C 22.904 63.612 25.467 66.404 28.307 69.494 C 32.941 74.526 38.297 80.354 50 80.354 C 62.593 80.354 70.458 73.608 73.608 60.118 C 68.887 66.863 63.376 69.393 57.083 67.706 C 53.487 66.742 50.924 63.949 48.084 60.86 C 43.45 55.828 38.094 50 26.392 50 Z"
        fill="transparent" stroke-width="5" stroke="white" stroke-linecap="round" stroke-linejoin="round"
        stroke-dasharray=""></path>
</svg>