<svg xmlns="http://www.w3.org/2000/svg" width="180" height="180">
    <path
        d="M 30.001 5.512 L 149.999 5.423 C 161.786 5.414 175.001 18.639 175.001 30.424 L 175.001 150.424 C 175.001 162.011 161.588 174.577 149.999 174.577 L 30.001 174.577 C 18.412 174.577 4.999 162.011 4.999 150.424 L 4.999 30.424 C 4.999 18.659 18.236 5.521 30.001 5.512 Z"
        fill="transparent" stroke-width="9" stroke="white" stroke-linecap="round" stroke-linejoin="round"></path>
    <path
        d="M 149.292 96.098 C 149.292 96.098 149.288 95.963 147.942 94.748 C 146.707 93.633 145.301 92.721 143.779 92.048 C 142.367 91.418 141.068 91.152 139.615 90.922 C 138.164 90.693 137.47 90.799 135.79 90.895 C 134.111 90.988 132.089 91.213 130.698 91.906 C 129.308 92.601 127.737 93.42 126.846 94.27 C 125.953 95.117 125.374 95.942 124.763 96.998 C 124.134 98.096 123.642 99.267 123.3 100.485 C 122.987 101.642 122.857 102.386 122.85 103.862 C 122.845 105.336 123.025 107.669 123.525 109.262 C 124.029 110.855 124.821 112.145 125.663 113.312 C 126.508 114.48 127.521 115.56 128.477 116.237 C 129.431 116.915 129.899 117.259 131.29 117.925 C 132.682 118.591 134.89 119.331 136.802 120.289 C 138.715 121.244 140.911 122.269 142.652 123.214 C 144.394 124.157 146.018 125.01 147.267 125.914 C 148.514 126.819 149.303 127.523 150.192 128.502 C 151.079 129.481 151.952 130.606 152.554 131.764 C 153.157 132.923 153.551 133.74 153.832 135.326 C 153.972 136.118 154.033 137.223 154.044 138.308 C 154.056 139.265 154.023 140.222 153.945 141.176 C 153.812 142.605 153.693 142.742 153.342 143.915 C 152.991 145.091 152.154 146.972 151.256 148.192 C 150.359 149.411 149.432 150.212 148.167 151.004 C 146.902 151.796 145.444 152.494 144.117 152.917 C 142.787 153.34 141.831 153.441 140.29 153.592 C 138.749 153.743 136.76 153.884 134.89 153.704 C 133.018 153.524 130.786 153.02 129.152 152.467 C 127.517 151.913 126.293 151.376 125.102 150.554 C 123.908 149.731 123.41 149.36 122.738 148.585 C 121.846 147.553 120.6 145.098 120.6 145.098 M 83.765 91.721 L 83.765 153.929 M 63.241 90.846 L 104.13 90.846"
        fill="transparent" stroke-width="9" stroke="white" stroke-linecap="round" stroke-linejoin="round"></path>
</svg>