<svg xmlns="http://www.w3.org/2000/svg" width="100" height="100">
    <path
        d="M 16.667 3.062 L 83.333 3.013 C 89.881 3.008 97.223 10.355 97.223 16.902 L 97.223 83.569 C 97.223 90.006 89.771 96.987 83.333 96.987 L 16.667 96.987 C 10.229 96.987 2.777 90.006 2.777 83.569 L 2.777 16.902 C 2.777 10.366 10.131 3.067 16.667 3.062 Z"
        fill="transparent" stroke-width="5" stroke="white" stroke-linecap="round" stroke-linejoin="round"
        stroke-dasharray=""></path>
    <path
        d="M 56.771 57.47 C 56.771 57.47 56.769 57.406 56.116 56.816 C 55.517 56.275 54.835 55.833 54.096 55.506 C 53.411 55.2 52.78 55.071 52.076 54.96 C 51.372 54.848 51.035 54.9 50.22 54.946 C 49.405 54.992 48.424 55.1 47.75 55.437 C 47.075 55.774 46.312 56.172 45.88 56.584 C 45.447 56.995 45.166 57.395 44.87 57.908 C 44.565 58.441 44.326 59.009 44.16 59.6 C 44.008 60.161 43.945 60.522 43.942 61.238 C 43.939 61.953 44.026 63.085 44.269 63.858 C 44.513 64.631 44.897 65.258 45.307 65.824 C 45.716 66.39 46.207 66.914 46.671 67.243 C 47.135 67.573 47.361 67.738 48.036 68.062 C 48.712 68.385 49.783 68.744 50.711 69.208 C 51.639 69.672 52.705 70.17 53.551 70.628 C 54.395 71.086 55.183 71.499 55.788 71.938 C 56.394 72.377 56.777 72.718 57.208 73.194 C 57.638 73.669 58.062 74.214 58.354 74.777 C 58.646 75.339 58.838 75.735 58.974 76.504 C 59.042 76.889 59.072 77.425 59.077 77.952 C 59.081 78.479 59.061 78.997 59.029 79.343 C 58.964 80.037 58.907 80.103 58.736 80.673 C 58.566 81.243 58.159 82.156 57.724 82.747 C 57.29 83.339 56.839 83.727 56.225 84.112 C 55.61 84.5 54.95 84.811 54.26 85.04 C 53.615 85.245 53.151 85.295 52.404 85.368 C 51.656 85.441 50.691 85.51 49.784 85.422 C 48.837 85.321 47.903 85.12 46.999 84.822 C 46.206 84.553 45.613 84.293 45.034 83.894 C 44.454 83.494 44.213 83.314 43.887 82.938 C 43.454 82.438 42.85 81.246 42.85 81.246 M 24.977 55.347 L 24.977 85.531 M 15.02 54.923 L 34.86 54.923"
        fill="transparent" stroke-width="5" stroke="white" stroke-linecap="round" stroke-linejoin="round"
        stroke-dasharray=""></path>
    <path d="M 68.681 85.517 L 85.356 55.099 M 85.356 85.517 L 68.68 55.099" fill="rgb(0,0,0)" stroke-width="5"
        stroke="white" stroke-linecap="round" stroke-linejoin="round" stroke-dasharray=""></path>
</svg>