<svg xmlns="http://www.w3.org/2000/svg" width="100" height="100">
    <path
        d="M 69.844 17.675 L 94.308 13.259 C 95.224 13.092 96.155 13.468 96.698 14.225 C 97.24 14.983 97.297 15.985 96.843 16.799 L 96.843 16.802 L 52.54 96.022 C 52.117 96.781 51.317 97.252 50.448 97.256 C 49.579 97.259 48.776 96.794 48.346 96.039 L 3.166 16.81 C 2.702 15.998 2.75 14.991 3.289 14.227 C 3.828 13.463 4.762 13.08 5.682 13.246 L 36.292 18.704"
        fill="transparent" stroke-width="4.999" stroke="white" stroke-miterlimit="10" stroke-dasharray=""></path>
    <path
        d="M 71.155 2.849 L 38.375 9.27 C 37.835 9.375 37.435 9.833 37.404 10.382 L 35.388 44.444 C 35.365 44.823 35.523 45.19 35.813 45.435 C 36.103 45.68 36.491 45.774 36.861 45.688 L 45.987 43.581 C 46.387 43.488 46.806 43.606 47.1 43.892 C 47.393 44.179 47.52 44.595 47.437 44.997 L 44.726 58.275 C 44.64 58.691 44.78 59.121 45.094 59.407 C 45.408 59.693 45.85 59.792 46.256 59.668 L 51.893 57.955 C 52.3 57.83 52.742 57.93 53.056 58.217 C 53.37 58.503 53.51 58.935 53.423 59.351 L 49.112 80.208 C 48.842 81.512 50.578 82.224 51.302 81.108 L 51.785 80.359 L 78.5 27.047 C 78.705 26.637 78.66 26.146 78.383 25.781 C 78.106 25.415 77.645 25.24 77.195 25.327 L 67.8 27.137 C 67.389 27.216 66.966 27.075 66.685 26.766 C 66.403 26.457 66.302 26.023 66.418 25.621 L 72.546 4.362 C 72.664 3.959 72.562 3.523 72.279 3.213 C 71.995 2.903 71.57 2.764 71.158 2.845 Z"
        fill="transparent" stroke-width="4.999" stroke="white" stroke-miterlimit="10" stroke-dasharray=""></path>
</svg>