<svg xmlns="http://www.w3.org/2000/svg" width="100" height="100">
    <path
        d="M 3.657 35.729 C 3.657 35.729 1.359 34.049 4.117 31.813 L 10.552 25.997 C 10.552 25.997 12.389 24.041 14.337 25.745 L 73.685 71.165 L 73.685 92.943 C 73.685 92.943 73.657 96.367 69.316 95.989 L 3.653 35.725 Z M 69.312 96.017 C 70.942 97.701 72.917 97.15 72.917 97.15 L 94.781 86.261 C 97.579 84.333 97.186 81.941 97.186 81.941 L 97.186 16.91 C 97.186 14.053 94.293 13.065 94.293 13.065 L 75.341 3.83 C 71.201 1.244 68.49 4.298 68.49 4.298 C 68.49 4.298 71.977 1.76 73.685 6.565 L 73.685 92.55 C 73.687 93.135 73.559 93.713 73.311 94.242 C 72.811 95.262 71.729 96.21 69.131 95.816 Z M 18.957 49.766 L 3.657 63.823 C 3.657 63.823 2.083 65.003 3.657 67.116 L 10.76 73.649 C 10.76 73.649 12.448 75.479 14.94 73.393 L 31.156 60.966 Z M 45.811 49.88 L 73.671 28.184 L 73.685 6.564 C 73.685 6.564 72.485 1.834 68.49 4.298 L 31.156 38.641 Z"
        fill="transparent" stroke-width="5" stroke="white" stroke-linecap="round" stroke-linejoin="round"
        stroke-dasharray=""></path>
</svg>