<svg xmlns="http://www.w3.org/2000/svg" width="180" height="180"><path d="M 80.719 32.147 C 80.719 23.107 88.047 15.778 97.088 15.778 C 106.128 15.778 113.456 23.107 113.456 32.147 C 113.456 41.187 106.128 48.516 97.088 48.516 C 88.047 48.516 80.719 41.187 80.719 32.147 Z" fill="transparent" stroke-width="4.12" stroke="#cbd4f5" stroke-miterlimit="5.575"></path><path d="M 134.466 88.875 C 134.466 79.835 141.794 72.506 150.834 72.506 C 159.875 72.506 167.203 79.835 167.203 88.875 C 167.203 97.915 159.875 105.244 150.834 105.244 C 141.794 105.244 134.466 97.915 134.466 88.875 Z" fill="transparent" stroke-width="4.12" stroke="#cbd4f5" stroke-miterlimit="5.575"></path><path d="M 80.719 142.228 C 80.719 133.188 88.047 125.859 97.088 125.859 C 106.128 125.859 113.456 133.188 113.456 142.228 C 113.456 151.268 106.128 158.597 97.088 158.597 C 88.047 158.597 80.719 151.268 80.719 142.228 Z" fill="transparent" stroke-width="4.12" stroke="#cbd4f5" stroke-miterlimit="5.575"></path><path d="M 26.269 118.209 C 26.269 109.169 33.597 101.841 42.638 101.841 C 51.678 101.841 59.006 109.169 59.006 118.209 C 59.006 127.25 51.678 134.578 42.638 134.578 C 33.597 134.578 26.269 127.25 26.269 118.209 Z" fill="transparent" stroke-width="4.12" stroke="#cbd4f5" stroke-miterlimit="5.575"></path><path d="M 26.269 54.197 C 26.269 45.157 33.597 37.828 42.638 37.828 C 51.678 37.828 59.006 45.157 59.006 54.197 C 59.006 63.237 51.678 70.566 42.638 70.566 C 33.597 70.566 26.269 63.237 26.269 54.197 Z" fill="transparent" stroke-width="4.12" stroke="#cbd4f5" stroke-miterlimit="5.575"></path><path d="M 83.841 82.322 C 83.841 75.021 89.759 69.103 97.059 69.103 C 104.36 69.103 110.278 75.021 110.278 82.322 C 110.278 89.622 104.36 95.541 97.059 95.541 C 89.759 95.541 83.841 89.622 83.841 82.322 Z" fill="transparent" stroke-width="4.12" stroke="#cbd4f5" stroke-miterlimit="5.575"></path><path d="M 56.728 45.844 L 81.281 36.366 M 108.563 43.847 L 139.163 77.4 M 140.822 101.812 L 108.759 130.753 M 51.638 67.866 L 86.934 129.403 M 57.122 125.831 L 80.719 136.772 M 48.769 103.022 L 88.228 45.9 M 57.713 60.609 L 85.331 76.219 M 110.306 83.812 L 134.466 85.641 M 97.059 95.569 L 97.087 125.831" fill="transparent" stroke-width="3.67" stroke="#cbd4f5" stroke-miterlimit="10"></path></svg>