<svg xmlns="http://www.w3.org/2000/svg" width="30" height="30"><path d="M 15 0.669 C 6.729 0.669 0 6.272 0 13.16 C 0 19.888 5.841 25.247 13.587 25.626 C 14.112 25.65 14.559 25.247 14.585 24.722 C 14.611 24.196 14.206 23.75 13.68 23.724 C 6.967 23.396 1.905 18.854 1.905 13.16 C 1.905 7.323 7.779 2.573 15 2.573 C 22.221 2.573 28.096 7.322 28.096 13.16 C 28.096 18.593 21.159 24.49 14.308 27.508 C 14.076 27.609 13.895 27.799 13.804 28.034 C 13.712 28.27 13.718 28.532 13.82 28.763 C 13.922 28.994 14.111 29.175 14.347 29.267 C 14.582 29.358 14.844 29.352 15.075 29.25 C 18.749 27.632 22.372 25.244 25.014 22.697 C 28.276 19.552 30 16.255 30 13.16 C 30 6.272 23.271 0.669 15 0.669 Z" fill="#24273a"></path><path d="M 7.629 10.116 C 7.478 9.927 7.268 9.827 7.024 9.827 C 6.78 9.827 6.571 9.929 6.421 10.123 C 6.283 10.302 6.217 10.546 6.217 10.872 L 6.217 15.841 C 6.217 16.189 6.288 16.443 6.435 16.617 C 6.592 16.802 6.834 16.896 7.155 16.896 L 9.856 16.896 C 10.112 16.896 10.314 16.82 10.457 16.671 C 10.598 16.527 10.671 16.338 10.671 16.11 C 10.671 15.891 10.597 15.696 10.456 15.548 C 10.313 15.395 10.111 15.315 9.856 15.315 L 7.842 15.315 L 7.842 10.872 C 7.842 10.54 7.772 10.292 7.629 10.116 Z M 11.904 9.827 C 11.663 9.827 11.455 9.929 11.304 10.122 C 11.166 10.298 11.097 10.55 11.097 10.872 L 11.097 15.956 C 11.097 16.284 11.166 16.531 11.309 16.711 C 11.459 16.904 11.665 17.006 11.904 17.006 C 12.148 17.006 12.358 16.905 12.511 16.713 C 12.652 16.534 12.724 16.279 12.724 15.956 L 12.724 10.872 C 12.724 10.547 12.652 10.293 12.51 10.116 C 12.356 9.927 12.147 9.827 11.904 9.827 Z M 15.189 13.2 L 16.81 16.107 L 16.814 16.113 C 16.852 16.177 16.891 16.241 16.929 16.303 L 16.997 16.416 C 17.073 16.539 17.148 16.638 17.228 16.719 C 17.323 16.817 17.423 16.888 17.534 16.936 C 17.653 16.984 17.779 17.008 17.906 17.007 C 18.226 17.007 18.763 16.863 18.763 15.903 L 18.763 10.829 C 18.763 10.52 18.701 10.287 18.575 10.116 C 18.434 9.926 18.232 9.827 17.99 9.827 C 17.754 9.827 17.555 9.927 17.414 10.115 C 17.288 10.29 17.227 10.522 17.227 10.829 L 17.227 13.701 L 15.553 10.739 L 15.467 10.581 L 15.379 10.421 C 15.308 10.295 15.245 10.201 15.184 10.129 C 15.112 10.04 15.022 9.967 14.921 9.913 C 14.815 9.856 14.691 9.827 14.544 9.827 C 14.358 9.827 14.186 9.886 14.032 10.004 C 13.883 10.115 13.771 10.267 13.71 10.441 L 13.707 10.448 C 13.658 10.595 13.635 10.785 13.635 11.026 L 13.635 16.005 C 13.635 16.3 13.698 16.537 13.824 16.711 L 13.828 16.716 C 13.973 16.906 14.175 17.007 14.412 17.007 C 14.645 17.007 14.844 16.907 14.989 16.719 C 15.122 16.546 15.189 16.306 15.189 16.005 L 15.189 13.2 Z M 23.526 11.451 C 23.775 11.451 23.97 11.378 24.107 11.235 C 24.24 11.095 24.307 10.912 24.307 10.692 C 24.307 10.473 24.239 10.291 24.106 10.153 C 23.972 10.01 23.776 9.936 23.526 9.936 L 20.572 9.936 C 20.375 9.936 20.204 9.973 20.064 10.047 C 19.909 10.131 19.795 10.261 19.724 10.436 C 19.663 10.583 19.633 10.765 19.633 10.992 L 19.633 15.841 C 19.633 16.19 19.706 16.444 19.855 16.618 C 20.009 16.802 20.251 16.896 20.573 16.896 L 23.612 16.896 C 23.861 16.896 24.058 16.821 24.197 16.673 C 24.33 16.529 24.397 16.346 24.397 16.128 C 24.397 15.904 24.33 15.717 24.198 15.574 C 24.056 15.425 23.859 15.35 23.613 15.35 L 21.26 15.35 L 21.26 14.021 L 23.325 14.021 C 23.574 14.021 23.767 13.947 23.899 13.8 C 24.025 13.659 24.088 13.481 24.088 13.271 C 24.088 13.057 24.022 12.879 23.893 12.743 C 23.764 12.602 23.572 12.529 23.325 12.529 L 21.261 12.529 L 21.261 11.45 L 23.526 11.45 Z" fill="#24273a"></path></svg>