<svg xmlns="http://www.w3.org/2000/svg" width="100" height="100">
    <path
        d="M 77.055 39.105 L 77.055 37.89 C 77.055 32.544 72.718 28.208 67.372 28.208 L 58.895 28.208 C 52.877 28.206 47.997 33.085 47.997 39.104 C 47.997 45.122 52.877 50.001 58.895 49.999 L 66.159 49.999 C 72.175 50.001 77.051 54.879 77.051 60.894 C 77.051 66.911 72.175 71.788 66.159 71.79 L 58.895 71.79 C 52.878 71.791 48 66.913 48 60.895 M 35.473 28.077 L 35.473 62.813 C 35.472 68.317 32.362 73.347 27.439 75.808 L 20.945 79.055 M 6.418 71.79 L 6.418 28.209 L 50 2.786 L 93.582 28.21 L 93.582 71.792 L 50 97.214 Z"
        fill="transparent" stroke-width="5" stroke="currentColor" stroke-linecap="round" stroke-linejoin="round"
        stroke-dasharray=""></path>
</svg>