<svg xmlns="http://www.w3.org/2000/svg" width="100" height="100">
    <path
        d="M 85.323 40.699 C 85.323 40.699 95.425 26.331 85.898 12.563 C 76.37 -1.204 60.442 3.568 60.442 3.568 C 60.442 3.568 36.549 16.214 23.312 25.196 C 13.073 32.543 7.028 41.64 15.846 56.967 C 24.664 72.294 49.149 65.771 49.149 65.771"
        fill="transparent" stroke-width="5" stroke="currentColor" stroke-linecap="round" stroke-linejoin="round"
        stroke-dasharray=""></path>
    <path
        d="M 14.677 59.301 C 14.677 59.301 4.575 73.67 14.102 87.437 C 23.63 101.204 39.558 96.432 39.558 96.432 C 39.558 96.432 63.451 83.786 76.688 74.804 C 86.926 67.457 92.971 58.36 84.153 43.033 C 75.335 27.706 50.85 34.229 50.85 34.229 M 37.676 42.416 L 67.72 23.875 M 31.992 76.52 L 62.037 57.98"
        fill="transparent" stroke-width="5" stroke="currentColor" stroke-linecap="round" stroke-linejoin="round"
        stroke-dasharray=""></path>
</svg>